<?xml version="1.0" encoding="UTF-8" standalone="no"?>
<!DOCTYPE svg PUBLIC "-//W3C//DTD SVG 1.1//EN"
 "http://www.w3.org/Graphics/SVG/1.1/DTD/svg11.dtd">
<!-- Generated by graphviz version 2.47.0 (20210316.0004)
 -->
<!-- Title: dependencies Pages: 1 -->
<svg width="748pt" height="284pt"
 viewBox="0.00 0.00 748.00 284.00" xmlns="http://www.w3.org/2000/svg" xmlns:xlink="http://www.w3.org/1999/xlink">
<g id="graph0" class="graph" transform="scale(1 1) rotate(0) translate(4 280)">
<title>dependencies</title>
<polygon fill="white" stroke="transparent" points="-4,4 -4,-280 744,-280 744,4 -4,4"/>
<text text-anchor="start" x="349.01" y="-42.4" font-family="Times-12" font-weight="bold" font-size="14.00">Legend</text>
<polygon fill="#ffffb3" stroke="transparent" points="136,-10 136,-30 156,-30 156,-10 136,-10"/>
<text text-anchor="start" x="159.63" y="-15.4" font-family="Times-12" font-size="14.00"> &#160;Declarations</text>
<polygon fill="#8dd3c7" stroke="transparent" points="249,-10 249,-30 269,-30 269,-10 249,-10"/>
<text text-anchor="start" x="272.73" y="-15.4" font-family="Times-12" font-size="14.00"> &#160;Module</text>
<polygon fill="#80b1d3" stroke="transparent" points="335,-10 335,-30 355,-30 355,-10 335,-10"/>
<text text-anchor="start" x="358.78" y="-15.4" font-family="Times-12" font-size="14.00"> &#160;Bootstrap</text>
<polygon fill="#fdb462" stroke="transparent" points="432,-10 432,-30 452,-30 452,-10 432,-10"/>
<text text-anchor="start" x="455.67" y="-15.4" font-family="Times-12" font-size="14.00"> &#160;Providers</text>
<polygon fill="#fb8072" stroke="transparent" points="528,-10 528,-30 548,-30 548,-10 528,-10"/>
<text text-anchor="start" x="551.73" y="-15.4" font-family="Times-12" font-size="14.00"> &#160;Exports</text>
<g id="clust1" class="cluster">
<title>cluster_AppModule</title>
<polygon fill="none" stroke="black" stroke-dasharray="1,5" points="8,-70 8,-268 732,-268 732,-70 8,-70"/>
</g>
<g id="clust2" class="cluster">
<title>cluster_AppModule_declarations</title>
<polygon fill="none" stroke="black" points="442,-78 442,-130 724,-130 724,-78 442,-78"/>
</g>
<g id="clust5" class="cluster">
<title>cluster_AppModule_imports</title>
<polygon fill="none" stroke="black" points="16,-78 16,-130 434,-130 434,-78 16,-78"/>
</g>
<g id="clust7" class="cluster">
<title>cluster_AppModule_bootstrap</title>
<polygon fill="none" stroke="black" points="300,-208 300,-260 424,-260 424,-208 300,-208"/>
</g>
<!-- AppComponent -->
<g id="node1" class="node">
<title>AppComponent</title>
<polygon fill="#ffffb3" stroke="black" points="715.94,-122 610.06,-122 610.06,-86 715.94,-86 715.94,-122"/>
<text text-anchor="middle" x="663" y="-99.8" font-family="Times,serif" font-size="14.00">AppComponent</text>
</g>
<!-- AppModule -->
<g id="node3" class="node">
<title>AppModule</title>
<polygon fill="#8dd3c7" stroke="black" points="403.66,-187 400.66,-191 379.66,-191 376.66,-187 320.34,-187 320.34,-151 403.66,-151 403.66,-187"/>
<text text-anchor="middle" x="362" y="-164.8" font-family="Times,serif" font-size="14.00">AppModule</text>
</g>
<!-- AppComponent&#45;&gt;AppModule -->
<g id="edge1" class="edge">
<title>AppComponent&#45;&gt;AppModule</title>
<path fill="none" stroke="black" d="M663,-122.28C663,-143.32 663,-175 663,-175 663,-175 413.85,-175 413.85,-175"/>
<polygon fill="black" stroke="black" points="413.85,-171.5 403.85,-175 413.85,-178.5 413.85,-171.5"/>
</g>
<!-- DashboardComponent -->
<g id="node2" class="node">
<title>DashboardComponent</title>
<polygon fill="#ffffb3" stroke="black" points="591.97,-122 450.03,-122 450.03,-86 591.97,-86 591.97,-122"/>
<text text-anchor="middle" x="521" y="-99.8" font-family="Times,serif" font-size="14.00">DashboardComponent</text>
</g>
<!-- DashboardComponent&#45;&gt;AppModule -->
<g id="edge2" class="edge">
<title>DashboardComponent&#45;&gt;AppModule</title>
<path fill="none" stroke="black" d="M521,-122.02C521,-139.37 521,-163 521,-163 521,-163 413.78,-163 413.78,-163"/>
<polygon fill="black" stroke="black" points="413.78,-159.5 403.78,-163 413.78,-166.5 413.78,-159.5"/>
</g>
<!-- AppComponent  -->
<g id="node7" class="node">
<title>AppComponent </title>
<polygon fill="#80b1d3" stroke="black" points="416.44,-252 307.56,-252 307.56,-216 416.44,-216 416.44,-252"/>
<text text-anchor="middle" x="362" y="-229.8" font-family="Times,serif" font-size="14.00">AppComponent </text>
</g>
<!-- AppModule&#45;&gt;AppComponent  -->
<g id="edge6" class="edge">
<title>AppModule&#45;&gt;AppComponent </title>
<path fill="none" stroke="black" stroke-dasharray="1,5" d="M362,-187.11C362,-187.11 362,-205.99 362,-205.99"/>
<polygon fill="black" stroke="black" points="358.5,-205.99 362,-215.99 365.5,-205.99 358.5,-205.99"/>
</g>
<!-- AppRoutingModule -->
<g id="node4" class="node">
<title>AppRoutingModule</title>
<polygon fill="#8dd3c7" stroke="black" points="426.27,-122 423.27,-126 402.27,-126 399.27,-122 297.73,-122 297.73,-86 426.27,-86 426.27,-122"/>
<text text-anchor="middle" x="362" y="-99.8" font-family="Times,serif" font-size="14.00">AppRoutingModule</text>
</g>
<!-- AppRoutingModule&#45;&gt;AppModule -->
<g id="edge3" class="edge">
<title>AppRoutingModule&#45;&gt;AppModule</title>
<path fill="none" stroke="black" d="M362,-122.11C362,-122.11 362,-140.99 362,-140.99"/>
<polygon fill="black" stroke="black" points="358.5,-140.99 362,-150.99 365.5,-140.99 358.5,-140.99"/>
</g>
<!-- HeroListComponent -->
<g id="node5" class="node">
<title>HeroListComponent</title>
<polygon fill="#8dd3c7" stroke="black" points="279.59,-122 276.59,-126 255.59,-126 252.59,-122 148.41,-122 148.41,-86 279.59,-86 279.59,-122"/>
<text text-anchor="middle" x="214" y="-99.8" font-family="Times,serif" font-size="14.00">HeroListComponent</text>
</g>
<!-- HeroListComponent&#45;&gt;AppModule -->
<g id="edge4" class="edge">
<title>HeroListComponent&#45;&gt;AppModule</title>
<path fill="none" stroke="black" d="M214,-122.02C214,-139.37 214,-163 214,-163 214,-163 309.99,-163 309.99,-163"/>
<polygon fill="black" stroke="black" points="309.99,-166.5 319.99,-163 309.98,-159.5 309.99,-166.5"/>
</g>
<!-- MaterialModule -->
<g id="node6" class="node">
<title>MaterialModule</title>
<polygon fill="#8dd3c7" stroke="black" points="130.47,-122 127.47,-126 106.47,-126 103.47,-122 23.53,-122 23.53,-86 130.47,-86 130.47,-122"/>
<text text-anchor="middle" x="77" y="-99.8" font-family="Times,serif" font-size="14.00">MaterialModule</text>
</g>
<!-- MaterialModule&#45;&gt;AppModule -->
<g id="edge5" class="edge">
<title>MaterialModule&#45;&gt;AppModule</title>
<path fill="none" stroke="black" d="M77,-122.28C77,-143.32 77,-175 77,-175 77,-175 310.25,-175 310.25,-175"/>
<polygon fill="black" stroke="black" points="310.25,-178.5 320.25,-175 310.25,-171.5 310.25,-178.5"/>
</g>
</g>
</svg>
